<?xml version="1.0" encoding="utf-8"?>
<svg width="130px" height="130px" viewBox="0 0 130 130" version="1.1" xmlns:xlink="http://www.w3.org/1999/xlink" xmlns="http://www.w3.org/2000/svg">
  <path d="M57.3294 3.39453C57.3294 2.23633 57.4321 1.10181 57.629 0C25.183 3.77344 0 31.3364 0 64.7778C0 100.797 29.2145 129.996 65.2523 129.996C98.5268 129.996 125.984 105.104 129.999 72.9336C128.923 73.1208 127.815 73.2188 126.684 73.2188C119.595 73.2188 113.403 69.3767 110.08 63.6624C106.277 65.2061 102.119 66.0566 97.7615 66.0566C79.6719 66.0566 65.0074 51.3997 65.0074 33.3196C65.0074 28.7351 65.9501 24.3711 67.6525 20.4099C61.5174 17.209 57.3294 10.7908 57.3294 3.39453ZM23.5459 43.4807C19.3055 43.4807 15.8679 46.916 15.8679 51.1538C15.8679 55.3914 19.3055 58.8267 23.5459 58.8267C27.7864 58.8267 31.224 55.3914 31.224 51.1538C31.224 46.916 27.7864 43.4807 23.5459 43.4807ZM44.0208 57.0369C44.0208 54.6355 45.9688 52.6887 48.3717 52.6887C50.7746 52.6887 52.7226 54.6355 52.7226 57.0369C52.7226 59.4382 50.7746 61.3848 48.3717 61.3848C45.9688 61.3848 44.0208 59.4382 44.0208 57.0369ZM69.3582 70.0808C66.9553 70.0808 65.0074 72.0276 65.0074 74.429C65.0074 76.8301 66.9553 78.7769 69.3582 78.7769C71.7612 78.7769 73.7091 76.8301 73.7091 74.429C73.7091 72.0276 71.7612 70.0808 69.3582 70.0808ZM44.2767 83.8916C40.743 83.8916 37.8784 86.7544 37.8784 90.2856C37.8784 93.8171 40.743 96.6799 44.2767 96.6799C47.8105 96.6799 50.6751 93.8171 50.6751 90.2856C50.6751 86.7544 47.8105 83.8916 44.2767 83.8916ZM78.316 91.5647C78.316 87.3269 81.7536 83.8916 85.994 83.8916C90.2345 83.8916 93.6721 87.3269 93.6721 91.5647C93.6721 95.8022 90.2345 99.2375 85.994 99.2375C81.7536 99.2375 78.316 95.8022 78.316 91.5647Z" id="cookie" fill="#FF0404" fill-rule="evenodd" stroke="none" />
</svg>