<?xml version="1.0" encoding="utf-8"?>
<svg width="70px" height="70px" viewBox="0 0 70 70" version="1.1" xmlns:xlink="http://www.w3.org/1999/xlink" xmlns="http://www.w3.org/2000/svg">
  <path d="M30.8681 1.82837C30.8681 1.20459 30.9235 0.593506 31.0295 0C13.5595 2.03198 0 16.8743 0 34.8821C0 54.2778 15.7302 70.0007 35.1342 70.0007C53.0509 70.0007 67.8349 56.5964 69.9965 39.2729C69.4166 39.374 68.8202 39.4265 68.2114 39.4265C64.3943 39.4265 61.0606 37.3579 59.2712 34.281C57.2236 35.1123 54.9844 35.5703 52.6382 35.5703C42.8981 35.5703 35.0022 27.678 35.0022 17.9421C35.0022 15.4736 35.5098 13.1238 36.4263 10.9907C33.123 9.26709 30.8681 5.81104 30.8681 1.82837ZM12.6779 23.4131C10.3947 23.4131 8.54382 25.2629 8.54382 27.5447C8.54382 29.8267 10.3947 31.6765 12.6779 31.6765C14.9612 31.6765 16.8121 29.8267 16.8121 27.5447C16.8121 25.2629 14.9612 23.4131 12.6779 23.4131ZM23.7023 30.7126C23.7023 29.4194 24.7512 28.3713 26.045 28.3713C27.3388 28.3713 28.3876 29.4194 28.3876 30.7126C28.3876 32.0056 27.3388 33.0537 26.045 33.0537C24.7512 33.0537 23.7023 32.0056 23.7023 30.7126ZM37.3449 37.7363C36.0511 37.7363 35.0022 38.7844 35.0022 40.0776C35.0022 41.3706 36.0511 42.4187 37.3449 42.4187C38.6387 42.4187 39.6875 41.3706 39.6875 40.0776C39.6875 38.7844 38.6387 37.7363 37.3449 37.7363ZM23.8401 45.1733C21.9375 45.1733 20.395 46.7146 20.395 48.6162C20.395 50.5178 21.9375 52.0593 23.8401 52.0593C25.7428 52.0593 27.2852 50.5178 27.2852 48.6162C27.2852 46.7146 25.7428 45.1733 23.8401 45.1733ZM42.168 49.3049C42.168 47.0229 44.019 45.1733 46.3022 45.1733C48.5854 45.1733 50.4363 47.0229 50.4363 49.3049C50.4363 51.5867 48.5854 53.4365 46.3022 53.4365C44.019 53.4365 42.168 51.5867 42.168 49.3049Z" id="cookie" fill="#FF0404" fill-rule="evenodd" stroke="none" />
</svg>